<?xml version="1.0" encoding="UTF-8"?>
<svg id="Layer_2" data-name="Layer 2" xmlns="http://www.w3.org/2000/svg" viewBox="0 0 1178.59 159.71">
  <defs>
    <style>
      .cls-1 {
        fill: #2c75ff;
      }

      .cls-1, .cls-2, .cls-3 {
        stroke-width: 0px;
      }

      .cls-2 {
        fill: #29c8fa;
      }

      .cls-3 {
        fill: #12367f;
      }
    </style>
  </defs>
  <g id="Layer_1-2" data-name="Layer 1">
    <g>
      <g>
        <path class="cls-2" d="M161.01,46.68c-.02,8.41-2.28,16.29-6.21,23.07-7.97-13.93-22.95-23.33-40.15-23.37l-112.56-.26L30.76,0l84.02.2c25.6.07,46.3,20.88,46.24,46.48"/>
        <path class="cls-1" d="M160.89,92.86c-.07,25.6-20.88,46.3-46.48,46.24l-114.4-.26,28.53-46.12,85.99.2c17.2.05,32.23-9.28,40.27-23.16,3.89,6.81,6.11,14.7,6.09,23.11"/>
        <path class="cls-3" d="M154.8,69.75c-8.04,13.88-23.07,23.21-40.27,23.16l-85.99-.09,29.02-46.54,57.1.09c17.2.04,32.18,9.45,40.15,23.37"/>
      </g>
      <g>
        <path class="cls-3" d="M279.19,75.09c-2.75-4.55-6.82-7.71-12.21-9.48,8.54-4.32,12.79-11.25,12.79-20.77,0-8.64-2.81-15.27-8.44-19.87-5.66-4.63-13.34-6.93-23.05-6.93h-45.22v103.07h45.49c10.71,0,19.18-2.63,25.4-7.89,6.24-5.23,9.35-12.53,9.35-21.86,0-6.27-1.37-11.7-4.12-16.28M224.12,38.07h21.36c4.52,0,7.83.78,9.93,2.35,2.12,1.59,3.16,4.22,3.16,7.96,0,6.97-4.17,10.46-12.51,10.46h-21.94v-20.78ZM258.87,98.14c-2.07,1.97-5.64,2.96-10.74,2.96h-24.01v-22.97h23.86c5.21,0,8.82.94,10.89,2.81,2.07,1.85,3.08,4.75,3.08,8.67s-1.01,6.6-3.08,8.54"/>
        <path class="cls-3" d="M346.04,40.14v42.54c0,6.6-1.54,11.6-4.62,15.04-3.11,3.44-7.53,5.16-13.35,5.16-5.28,0-9.1-1.39-11.4-4.12-2.3-2.75-3.46-6.87-3.46-12.38v-46.22h-21.05v50.8c0,9.81,2.58,17.59,7.73,23.33,5.16,5.74,12.18,8.62,21.13,8.62,10.49,0,18.86-4.32,25.02-12.96v11.2h21.05V40.14h-21.05Z"/>
        <path class="cls-3" d="M379.33,121.12h21.05V40.14h-21.05v80.98ZM399.34,6.2c-2.45-2.3-5.59-3.46-9.43-3.46s-6.85,1.16-9.35,3.54c-2.5,2.35-3.74,5.28-3.74,8.82s1.24,6.62,3.74,9c2.5,2.35,5.64,3.51,9.35,3.51s6.98-1.16,9.43-3.51c2.45-2.38,3.69-5.36,3.69-9s-1.24-6.6-3.69-8.9"/>
        <rect class="cls-3" x="413.04" y="7.74" width="21.05" height="113.38"/>
        <path class="cls-3" d="M506.71,99.33c-7.48,2.65-13.12,3.97-16.96,3.97-8.62,0-12.94-4.85-12.94-14.58v-28.71l-21.05,9.4v20.5c0,10.99,2.86,19.23,8.59,24.74,5.76,5.48,12.99,8.24,21.74,8.24,4.5,0,9.05-.66,13.62-2,4.55-1.31,8.06-2.81,10.51-4.47l-3.51-17.08ZM506.84,40.14h-30.03v-22.09l-21.05,4.55v17.54h-14.43v19.87h65.51v-19.87Z"/>
        <path class="cls-3" d="M598.43,75.09c-2.75-4.55-6.82-7.71-12.21-9.48,8.52-4.32,12.81-11.25,12.81-20.77,0-8.64-2.83-15.27-8.49-19.87-5.63-4.63-13.32-6.93-23.03-6.93h-45.21v103.07h45.49c10.71,0,19.18-2.63,25.4-7.89,6.24-5.23,9.35-12.53,9.35-21.86,0-6.27-1.37-11.7-4.12-16.28M543.36,38.07h21.36c4.52,0,7.83.78,9.93,2.35,2.12,1.59,3.16,4.22,3.16,7.96,0,6.97-4.17,10.46-12.51,10.46h-21.94v-20.78ZM578.11,98.14c-2.05,1.97-5.64,2.96-10.74,2.96h-24.01v-22.97h23.86c5.21,0,8.85.94,10.89,2.81,2.07,1.85,3.08,4.75,3.08,8.67s-1.01,6.6-3.08,8.54"/>
        <polygon class="cls-3" points="668.39 40.14 648.19 87.55 628.17 40.14 605.78 40.14 637.02 110.37 615.82 157.94 638.18 157.94 690.91 40.14 668.39 40.14"/>
        <path class="cls-3" d="M775.65,32.76c-10.06-9.81-22.6-14.71-37.63-14.71h-37.25v103.07h37.25c15.04,0,27.57-4.9,37.63-14.74,10.06-9.8,15.09-22.06,15.09-36.8s-5.03-26.99-15.09-36.82M760.84,92.25c-5.89,5.89-13.5,8.85-22.82,8.85h-16.17v-63.03h16.17c9.33,0,16.93,2.96,22.82,8.85,5.89,5.89,8.85,13.44,8.85,22.67s-2.96,16.78-8.85,22.67"/>
        <path class="cls-3" d="M872.98,52.07c-7.71-9.15-18.2-13.7-31.44-13.7-12.28,0-22.39,4.02-30.33,12.08-7.96,8.04-11.93,18.15-11.93,30.33s3.97,22.21,11.93,30.18c7.93,7.96,18.2,11.93,30.78,11.93,9.22,0,17.41-2.3,24.57-6.92,7.18-4.6,12.18-11.48,15.04-20.6h-21.81c-1.37,3.14-3.67,5.61-6.9,7.43-3.24,1.82-6.92,2.73-11.05,2.73-5.71,0-10.46-1.69-14.28-5.03-3.84-3.34-6.09-8.14-6.77-14.43h62.12c1.09-13.55-2.22-24.87-9.93-33.99M821.8,70.62c1.39-4.52,3.74-8.14,7.08-10.82,3.33-2.71,7.51-4.07,12.51-4.07s9.05,1.36,12.38,4.07c3.33,2.68,5.59,6.29,6.77,10.82h-38.74Z"/>
        <path class="cls-3" d="M964.04,85.94c-1.47-2.75-3.92-5.11-7.35-7.08-3.44-1.97-7.05-3.56-10.89-4.78-3.84-1.24-9.02-2.58-15.62-4.07-6.57-1.46-10.79-2.58-12.66-3.39-1.85-.78-2.78-2.05-2.78-3.82,0-4.52,4.5-6.77,13.55-6.77s13.98,2.75,15.74,8.24h21.36c-1.47-7.94-5.21-14.25-11.2-18.91-5.99-4.67-14.38-7-25.17-7s-19.41,2.38-25.86,7.13c-6.42,4.78-9.63,11.37-9.63,19.81,0,6.77,2.37,11.85,7.13,15.24,4.78,3.39,13.19,6.5,25.27,9.35,1.06.3,2.35.58,3.82.88,1.47.3,2.63.53,3.46.73s1.82.43,2.93.73c1.14.3,2,.56,2.58.73.61.2,1.27.45,2,.73.73.3,1.29.63,1.69.96.38.35.76.73,1.11,1.11.33.41.58.84.73,1.31.15.51.2,1.04.2,1.64,0,4.4-4.55,6.62-13.67,6.62-11.3,0-17.82-3.64-19.59-10.89h-21.36c1.46,8.82,5.84,15.77,13.12,20.83,7.25,5.05,16.33,7.58,27.22,7.58s19.16-2.3,25.93-6.92c6.77-4.6,10.16-11.27,10.16-20.02,0-3.92-.73-7.28-2.22-10.01"/>
        <path class="cls-3" d="M975.54,121.12h21.05V40.14h-21.05v80.98ZM995.56,6.2c-2.45-2.3-5.59-3.46-9.43-3.46s-6.85,1.16-9.35,3.54c-2.5,2.35-3.74,5.28-3.74,8.82s1.24,6.62,3.74,9c2.5,2.35,5.64,3.51,9.35,3.51s6.97-1.16,9.43-3.51c2.45-2.38,3.69-5.36,3.69-9s-1.24-6.6-3.69-8.9"/>
        <path class="cls-3" d="M1069.64,40.14v11.17c-6.19-8.62-14.68-12.94-25.48-12.94s-19.28,3.92-26.36,11.78c-7.08,7.86-10.59,17.82-10.59,29.9s3.49,22.04,10.51,29.87c7.03,7.86,15.82,11.78,26.44,11.78s19.18-4.22,25.48-12.66v11.65c0,13.54-6.55,20.32-19.59,20.32-10.31,0-16.55-4.12-18.7-12.38h-21.78c1.46,10.11,6.06,17.82,13.75,23.13,7.71,5.31,16.81,7.96,27.32,7.96,12.18,0,21.89-3.61,29.17-10.84,7.25-7.2,10.89-16.81,10.89-28.79V40.14h-21.05ZM1063.75,95.64c-3.94,4.02-8.9,6.04-14.89,6.04s-10.77-2.05-14.63-6.12c-3.89-4.07-5.84-9.25-5.84-15.52s1.95-11.47,5.84-15.54c3.87-4.07,8.75-6.12,14.63-6.12s10.82,2.05,14.81,6.12c3.97,4.07,5.97,9.25,5.97,15.54s-1.97,11.58-5.89,15.59"/>
        <path class="cls-3" d="M1170.78,46.91c-5.18-5.71-12.36-8.54-21.48-8.54-10.72,0-19.11,4.27-25.2,12.81v-11.04h-21.05v80.98h21.05v-42.56c0-13.45,6.09-20.17,18.28-20.17,5.38,0,9.27,1.39,11.63,4.12,2.35,2.75,3.54,6.87,3.54,12.38v46.22h21.05v-50.8c0-9.91-2.6-17.72-7.81-23.4"/>
      </g>
    </g>
  </g>
</svg>

