<?xml version="1.0" encoding="UTF-8"?>
<svg id="Layer_2" data-name="Layer 2" xmlns="http://www.w3.org/2000/svg" viewBox="0 0 477.95 477.87">
  <defs>
    <style>
      .cls-1 {
        fill: #2097ff;
      }

      .cls-2 {
        fill: #64b7ff;
      }

      .cls-3 {
        fill: #1587ed;
      }

      .cls-4 {
        fill: #0d70c8;
      }
    </style>
  </defs>
  <g id="Layer_1-2" data-name="Layer 1">
    <g>
      <polygon class="cls-3" points="165.58 344.48 249.05 261 477.95 261 477.95 345.96 167.05 345.96 165.58 344.48"/>
      <polygon class="cls-3" points="131.99 310.9 131.99 0 217.01 0 217.01 228.78 133.41 312.32 131.99 310.9"/>
      <polygon class="cls-1" points="296.05 214.01 381.01 129.05 477.95 129.05 477.95 214.01 296.05 214.01"/>
      <polygon class="cls-1" points="263.94 181.84 263.94 0 348.9 0 348.9 96.89 263.94 181.84"/>
      <rect class="cls-2" x="395.88" y="0" width="82.04" height="82.04"/>
      <polygon class="cls-4" points="477.92 392.92 477.92 477.87 185.92 477.87 109.02 401.05 165.54 344.53 214.01 392.92 477.92 392.92"/>
      <polygon class="cls-4" points="133.34 312.25 132 313.76 76.9 368.85 0 292.04 .08 .04 85.04 .04 85.04 263.94 133.34 312.25"/>
    </g>
  </g>
</svg>