<svg xmlns="http://www.w3.org/2000/svg" width="195" height="28" fill="none" xmlns:v="https://vecta.io/nano"><g clip-path="url(#A)" fill="#1b1b1b"><path d="M20.912 9.593c.002.008.001.017-.004.025l-.984 1.6-.871 1.476-4.81 7.852c-.02.033-.05.05-.089.05h-2.296c-.019-.007-.023-.011-.025-.015-.004-.02-.002-.025 0-.03l6.919-11.305c.022-.037.027-.075.014-.116-1.138-3.426-4.034-5.888-7.576-6.515a4.94 4.94 0 0 0-.498-.063c-.023-.002-.035-.015-.035-.038l.007-2.018c.004-.015.006-.019.009-.021.014-.007.018-.008.022-.007 2.482.25 4.677 1.197 6.586 2.843 1.599 1.379 2.746 3.112 3.441 5.197.101.303.183.619.246.949.008.038-.005.069-.038.092-.014.01-.02.024-.016.042z"/><path d="M5.088 9.789l1.117 1.521c.023.031.054.041.092.029l2.64-.847a.09.09 0 0 1 .043-.003c.014.002.028.009.04.019a4.84 4.84 0 0 0 .481.366c1.093.726 2.587.392 3.266-.706.533-.861.465-1.862-.124-2.674-.009-.013-.013-.028-.011-.043s.01-.029.021-.039l1.481-1.203c.008-.007.018-.012.029-.015s.022-.004.033-.003.022.004.031.01.018.012.025.021a3.78 3.78 0 0 1 .504.811c.549 1.211.574 2.413.075 3.604-.554 1.324-1.71 2.272-3.121 2.581-1.043.228-2.054.084-3.031-.433-.018-.009-.038-.015-.058-.017s-.041 0-.06.007l-3.05.976a.06.06 0 0 1-.066-.021L2.238 9.435c-.014-.018-.012-.035.006-.049l8.385-6.814c.023-.001.026.002.027.005l.003 2.552c0 .04-.015.072-.046.098L5.096 9.721c-.024.02-.027.043-.008.068zm32.582 6.82l-.003-6.67c0-.047.023-.071.07-.071l4.408.002c.016.004.019.006.022.009.008.014.009.018.009.022l.001 11.915a.08.08 0 0 1-.023.056c-.015.015-.035.023-.056.023l-4.334.002a.38.38 0 0 1-.275-.113L34.55 18.93l-3.01-2.902-1.448-1.396a.04.04 0 0 0-.02-.01c-.007-.001-.015-.001-.022.002s-.013.007-.018.013-.008.013-.009.021a.78.78 0 0 0-.006.094l-.01 7.08c0 .04-.02.06-.059.06l-4.367.01a.08.08 0 0 1-.092-.093l.002-11.874c0-.05.025-.075.075-.075l4.868-.002c.124 0 .232.044.322.132l6.671 6.56a.3.3 0 0 0 .214.09c.021 0 .031-.01.031-.031zm10.636-3.819l-.004 1.481c0 .021.01.031.031.031l8.344.003a.87.87 0 0 1 .218.029c.013.01.014.014.014.018l-.007 2.766c0 .024-.01.047-.027.064s-.04.027-.065.027l-8.481-.002c-.01 0-.015.005-.016.014v1.651c.001.034.018.051.052.051h8.766c.011 0 .022.002.033.007s.02.011.028.019.014.018.018.028.006.022.006.033l.021 2.804c.002.057-.026.085-.083.085H43.887c-.063 0-.094-.031-.094-.093l.002-11.855c0-.055.027-.082.082-.082l13.142.003a.07.07 0 0 1 .081.08l-.004 2.741c0 .012-.004.025-.012.034s-.019.017-.031.019c-.04.009-.084.013-.13.013l-8.57-.016a.04.04 0 0 0-.046.046zm9.783.25l-.006-3.102c0-.017.007-.034.019-.046s.029-.019.046-.019l14.861-.003c.017 0 .034.007.046.019s.019.029.019.046l.001 3.105c0 .017-.007.034-.019.046s-.029.019-.046.019l-5.082.001c-.017 0-.034.007-.046.019s-.019.029-.019.046l-.002 8.661c0 .017-.007.034-.019.046s-.029.019-.046.019l-4.438-.002c-.017 0-.034-.007-.046-.019s-.019-.029-.019-.046l.002-8.661c0-.017-.007-.034-.019-.046s-.029-.019-.046-.019l-5.073.001c-.017 0-.034-.007-.046-.019s-.019-.029-.019-.046zm20.813 4.777v4.032c0 .029-.015.044-.045.044l-4.472.006c-.017 0-.033-.007-.044-.018s-.018-.028-.018-.044V9.901c0-.009.003-.017.01-.023s.014-.01.023-.01l11.56.01c.48.001.945.1 1.41.172.862.132 1.759.49 2.351 1.173.494.57.65 1.448.574 2.176-.07.663-.346 1.197-.828 1.6a3.79 3.79 0 0 1-1.398.746c-.163.047-.163.093.002.136 1.302.349 2.256 1.29 2.27 2.685l.006 1.782c-.002.482.046 1.018.208 1.45.026.069.002.104-.072.104l-4.547-.01c-.023-.001-.036-.012-.039-.035l-.052-.601-.01-1.518a2.56 2.56 0 0 0-.205-.924c-.333-.804-1.178-1.038-2.013-1.039a885.3 885.3 0 0 0-4.627.002c-.028 0-.042.014-.042.042zm-.002-5.042v2.088c0 .008.003.015.008.02s.013.008.02.008h5.441c.328 0 .643-.103.875-.287s.362-.433.362-.693v-.184c0-.26-.13-.51-.362-.694s-.547-.287-.875-.287h-5.441c-.008 0-.015.003-.02.008s-.008.012-.008.02zm17.214 6.097c0 .014.005.027.015.036a.05.05 0 0 0 .036.015h8.793c.074 0 .11.037.11.11l.002 2.816c0 .025-.012.038-.037.038l-1.618.014a4078.6 4078.6 0 0 0-11.047.002c-.248 0-.48-.004-.698-.013-.01 0-.02-.005-.027-.012s-.011-.017-.011-.027l-.001-11.919c0-.039.019-.059.058-.059l13.193-.001c.01 0 .021.004.029.012a.04.04 0 0 1 .012.029l.001 2.765c0 .05-.025.075-.076.075l-8.671.007c-.044 0-.067.022-.067.067l-.008 1.435a.04.04 0 0 0 .011.028c.007.007.017.012.027.012h8.581c.025 0 .038.013.038.039l-.003 2.793c0 .02-.008.04-.022.054s-.034.022-.054.022l-8.489-.001c-.021 0-.041.008-.055.023s-.023.035-.023.055v1.586zm18.586-.666c.016 0 .031-.004.044-.012a.08.08 0 0 0 .031-.035l3.681-8.152a.22.22 0 0 1 .216-.139l4.509-.004c.008 0 .015.002.021.006s.013.009.017.015.006.013.006.021 0 .015-.004.022L117.66 21.8c-.03.065-.08.097-.152.097l-5.83.001a.24.24 0 0 1-.214-.132L105.513 9.94c-.004-.008-.006-.016-.006-.025s.003-.017.008-.025.011-.014.019-.018.016-.006.025-.006l4.884-.004c.173-.001.239.093.303.227l3.859 8.053c.021.042.052.063.095.064zm13.686-5.384l-.008 1.414c0 .017.007.033.019.045s.028.018.045.018l8.481.002a.06.06 0 0 1 .044.018c.012.012.019.028.019.044l.017 2.783c0 .008-.001.017-.004.024a.07.07 0 0 1-.014.021c-.006.006-.013.011-.021.014s-.016.005-.024.005l-8.495-.005c-.016 0-.033.007-.044.019s-.019.028-.019.045l-.003 1.59c0 .017.007.033.019.045s.028.019.044.019h8.786c.008 0 .016.002.024.005s.015.008.021.014.01.013.013.021.005.016.005.024l.003 2.848c0 .008-.002.017-.005.024a.06.06 0 0 1-.014.021c-.006.006-.013.011-.021.014s-.016.005-.024.005l-13.301.002c-.017 0-.033-.007-.045-.019s-.019-.028-.019-.045l.002-11.902c0-.017.006-.033.018-.045s.028-.019.045-.019l13.207.002c.017 0 .033.007.045.019s.018.028.018.045l-.012 2.751c0 .017-.007.033-.019.045s-.028.019-.045.019l-8.675.009c-.016 0-.032.007-.044.019s-.018.027-.019.044zm14.859 1.855a.96.96 0 0 0-.027.231l.002 6.934c0 .039-.02.059-.059.059l-4.448-.008c-.026 0-.04-.013-.04-.04V9.936c0-.046.024-.069.07-.069l4.726-.007a.79.79 0 0 1 .58.235l6.656 6.529c.049.049.088.041.117-.023a.39.39 0 0 0 .004-.084l.003-6.607c0-.01.004-.019.011-.026s.016-.011.026-.011l4.497-.001c.019 0 .029.009.029.028l-.003 11.935c0 .035-.018.052-.052.053l-4.337.008a.47.47 0 0 1-.33-.129l-3.424-3.319-3.911-3.796c-.007-.007-.015-.012-.024-.014s-.019-.002-.029 0-.017.008-.024.014-.011.015-.013.025zm25.58-4.75c-.006-.012-.007-.024-.003-.034s.013-.017.026-.017l4.494-.01c.04 0 .06.02.059.059l.002 5.713c.003 1.903-.68 3.483-2.05 4.74-.22.201-.514.402-.884.602a8.46 8.46 0 0 1-2.662.914l-.977.147-3.247.008a5.46 5.46 0 0 1-.657-.071l-.663-.113c-.826-.147-1.64-.427-2.441-.841-1.428-.737-2.402-2.127-2.791-3.673a5.32 5.32 0 0 1-.119-.739l-.079-1.011-.001-5.706 4.535-.026c.029 0 .043.015.043.044l-.006 4.968c-.002.614.054 1.105.169 1.475.165.531.414.962.746 1.292.542.538 1.348.749 2.126.846.688.085 1.391.04 2.11-.134 1.231-.299 2.011-1.137 2.22-2.387.046-.273.065-.701.058-1.282l-.016-4.606c0-.058.004-.098.011-.121.004-.013.003-.025-.003-.037zm10.6 4.372l7.766-.01.785.02c.026.002.039.015.039.042l-.002 2.788c0 .008-.001.017-.005.025s-.008.015-.014.021-.013.011-.02.014-.017.005-.025.005l-8.485.007c-.058 0-.087.029-.087.087v1.57c0 .015.006.03.017.041s.026.017.041.017l8.807-.011c.047 0 .071.024.072.071l.002 2.845c0 .041-.02.061-.06.061l-13.299.009a.07.07 0 0 1-.05-.021c-.013-.013-.021-.031-.021-.05l.001-11.872a.09.09 0 0 1 .025-.062c.016-.017.039-.026.062-.026l13.188.004c.028 0 .043.014.043.043l.003 2.782c0 .035-.022.052-.066.052l-8.702.005c-.043 0-.064.021-.065.063l-.004 1.425c0 .036.018.054.054.054zm14.619-2.349c0 .558-.222 1.092-.616 1.487a2.1 2.1 0 0 1-2.974 0 2.1 2.1 0 0 1-.616-1.487c0-.558.222-1.092.616-1.487a2.1 2.1 0 0 1 1.487-.616c.558 0 1.092.222 1.487.616a2.1 2.1 0 0 1 .616 1.487zm-.208-.001a1.89 1.89 0 1 0-3.784 0 1.89 1.89 0 1 0 3.784 0z"/><path d="M192.304 12.228l.468.757a.05.05 0 0 1-.041.091c-.021.003-.041.003-.061-.001-.033-.007-.065-.02-.093-.04a.24.24 0 0 1-.068-.074l-.392-.66c-.119-.204-.407-.17-.602-.145-.09.011-.137.06-.14.145l.001.704c0 .02-.007.039-.02.053s-.032.023-.051.024l-.027.001c-.055.003-.087-.023-.094-.077a1.05 1.05 0 0 1-.01-.147l-.005-1.933c0-.023.008-.045.023-.062s.037-.028.06-.031c.335-.04.651-.035.947.016.317.055.504.227.562.516.074.369-.133.588-.433.765a.08.08 0 0 0-.021.019c-.005.008-.009.016-.011.025s-.003.019-.001.028.004.018.009.026zm-.926-1.091l-.002.715c0 .033.013.064.037.088a.12.12 0 0 0 .087.036l.521.001a.62.62 0 0 0 .209-.035.55.55 0 0 0 .177-.102.48.48 0 0 0 .119-.152.42.42 0 0 0 .041-.18v-.022c.001-.125-.057-.244-.159-.332a.59.59 0 0 0-.385-.138l-.521-.001c-.033 0-.065.013-.088.036s-.036.055-.036.088zM20.991 16.246l-2.654 4.338c-.013.011-.017.012-.021.012h-2.362c-.016-.006-.019-.009-.021-.012-.003-.017-.002-.021 0-.025l4.996-8.143c.017-.013.023-.014.028-.012.017.014.018.019.018.025l.019 3.805zm-14.076 5.7c-.005.022-.003.027 0 .032.017.015.022.016.028.016l14.557-.001c.02 0 .04.005.057.015a.13.13 0 0 1 .043.041l1.196 1.956c.004.02.003.024.001.029-.015.013-.02.014-.025.014l-19.522.001c-.015-.005-.018-.008-.02-.012-.003-.016-.002-.021 0-.024l6.547-10.694c.012-.019.029-.019.052.001.012.018.013.023.013.029l-.001 3.69a.41.41 0 0 1-.06.214l-2.865 4.693zm19.104 5.524H.023c-.017-.006-.02-.009-.022-.013-.003-.018-.002-.022.001-.026l1.216-1.99c.013-.011.017-.012.022-.012h23.565c.016.005.019.008.022.012l1.214 1.99c.004.017.003.022.001.026-.013.012-.018.013-.022.013z"/></g><defs><clipPath id="A"><path fill="#fff" transform="translate(0 .5)" d="M0 0h194.072v27H0z"/></clipPath></defs></svg>